# xmcd
#
# Track frame offsets:
#	150
#	27717
#	67733
#	90400
#	116357
#	153540
#	169992
#	199408
#	217093
#	244565
#
# Disc length: 3588 seconds
#
# Revision: 1
# Processed by: cddbd v1.5.2PL0 Copyright (c) Steve Scherf et al.
# Submitted via: EasyCDDAExtractor 2011.0.0.0
#
DISCID=880e020a
DTITLE=Various Artist - Club Music
DYEAR=1900
DGENRE=Blues
TTITLE0=Kings Of Tomorrow - Finally
TTITLE1=Papa Washington Trio - Kingston Bridge
TTITLE2=Organic Audio - Nurega
TTITLE3=Donnie - Holiday
TTITLE4=Mr.Hermano - Capoeira Love Affair
TTITLE5=Groove Assassins and Dj Raw - Trippin' On The Love
TTITLE6=Tim "Love" Lee - The Goodbye Highway
TTITLE7=The Dining Rooms - Maria
TTITLE8=Kevin Yost - Intentions
TTITLE9=Waldeck - The Night Garden
EXTD=
EXTT0=
EXTT1=
EXTT2=
EXTT3=
EXTT4=
EXTT5=
EXTT6=
EXTT7=
EXTT8=
EXTT9=
PLAYORDER=
